<svg width="23" height="56" viewBox="0 0 23 56" fill="none" xmlns="http://www.w3.org/2000/svg">
<path fill-rule="evenodd" clip-rule="evenodd" d="M21.3281 56H1.64062C0.734562 56 0 55.2654 0 54.3594V27.8906C0 24.7486 1.90514 22.4226 3.66243 20.277C5.16663 18.4404 6.5625 16.7362 6.5625 14.7656V1.64062C6.5625 0.734562 7.29706 0 8.20312 0H14.7656C15.6717 0 16.4062 0.734562 16.4062 1.64062V14.7656C16.4062 16.7341 17.8019 18.4391 19.306 20.2765C21.0634 22.4233 22.9688 24.7509 22.9688 27.8906V54.3594C22.9688 55.2654 22.2342 56 21.3281 56ZM4.54129 24.5C5.0198 23.7974 5.59225 23.0985 6.18132 22.3793C7.93861 20.2337 9.84375 17.9076 9.84375 14.7656V3.28125H13.125V14.7656C13.125 17.9053 15.0303 20.2329 16.7877 22.3797C17.3764 23.0988 17.9484 23.7977 18.4267 24.5H4.54129Z" fill="#D7D7D7"/>
</svg>
